<?xml version="1.0" encoding="UTF-8" standalone="no"?>
<!DOCTYPE svg PUBLIC "-//W3C//DTD SVG 1.1//EN" "http://www.w3.org/Graphics/SVG/1.1/DTD/svg11.dtd">
<svg width="100%" height="100%" viewBox="0 0 1200 630" version="1.1" xmlns="http://www.w3.org/2000/svg" xmlns:xlink="http://www.w3.org/1999/xlink" xml:space="preserve" xmlns:serif="http://www.serif.com/" style="fill-rule:evenodd;clip-rule:evenodd;stroke-linejoin:round;stroke-miterlimit:2;">
    <rect x="0" y="0" width="1200" height="630" style="fill:rgb(242,248,246);"/>
    <g transform="matrix(1,0,0,1,32.52,338.695)">
        <text x="0px" y="-217.609px" style="font-family:'Arial-BoldMT', 'Arial', sans-serif;font-weight:700;font-size:96px;fill:rgb(38,73,67);">Te<tspan x="112.031px " y="-217.609px ">a</tspan>cher PD for Students&apos;</text>
        <text x="0px" y="-121.609px" style="font-family:'Arial-BoldMT', 'Arial', sans-serif;font-weight:700;font-size:96px;fill:rgb(38,73,67);">Externalizing Behavior</text>
    </g>
    <g transform="matrix(1,0,0,1,32.52,555.516)">
        <g transform="matrix(64,0,0,64,597.438,-240.516)">
        </g>
        <text x="0px" y="-240.516px" style="font-family:'Arial-BoldMT', 'Arial', sans-serif;font-weight:700;font-size:64px;fill:rgb(38,73,67);">Hannah Odink et al.</text>
    </g>
    <g transform="matrix(0.794132,0,0,0.772514,-42875.4,-10791.5)">
        <g transform="matrix(4.16667,0,0,4.16667,55046.5,14377.1)">
            <path d="M71.423,78.178L72.022,78.178C72.668,78.178 72.748,78.324 72.748,79.406L72.748,83.346C72.748,84.089 72.668,84.364 71.844,84.364L71.328,84.364L71.328,85.156L75.849,85.156L75.849,84.364L75.623,84.364C74.8,84.364 74.719,84.089 74.719,83.346L74.719,80.698C74.719,79.179 75.526,78.34 76.705,78.34C77.578,78.34 78.127,78.857 78.127,80.003L78.127,83.346C78.127,84.089 78.046,84.364 77.222,84.364L76.996,84.364L76.996,85.156L81.421,85.156L81.421,84.364L81.002,84.364C80.177,84.364 80.097,84.089 80.097,83.346L80.097,79.536C80.097,77.79 78.869,77.081 77.287,77.081C75.978,77.081 75.058,77.629 74.509,78.937L74.477,78.937L74.477,77.144C73.685,77.242 72.248,77.338 71.423,77.338L71.423,78.178ZM70.148,81.376L70.148,81.004C70.148,78.291 69.066,77.081 66.466,77.081C63.753,77.081 62.589,78.857 62.589,81.248C62.589,83.637 63.753,85.414 66.466,85.414C69.164,85.414 69.971,84.025 69.987,82.635L68.339,82.635C68.324,83.847 67.839,84.477 66.66,84.477C64.673,84.477 64.658,82.474 64.658,81.376L70.148,81.376ZM64.658,80.44C64.658,79.082 65.061,77.968 66.451,77.968C67.839,77.968 68.178,79.116 68.178,80.44L64.658,80.44ZM58.503,79.89C58.503,81.295 58.1,81.973 57.228,81.973C56.373,81.973 55.824,81.361 55.824,79.907C55.824,78.501 56.308,77.968 57.212,77.968C57.987,77.968 58.503,78.42 58.503,79.89ZM59.182,86.511C59.182,87.254 58.682,88.031 57.148,88.031C55.791,88.031 55.257,87.383 55.257,86.592C55.257,85.737 55.744,85.027 57.196,85.027C58.601,85.027 59.182,85.688 59.182,86.511ZM61.524,77.209L59.134,77.419C58.682,77.29 57.939,77.081 57.261,77.081C55.145,77.081 53.755,78.291 53.755,79.859C53.755,81.328 54.677,82.054 55.888,82.443L55.888,82.474C54.774,82.572 54.305,82.975 54.305,83.492C54.305,84.04 54.677,84.316 55.759,84.526L55.759,84.557C54.628,84.67 53.289,85.268 53.289,86.577C53.289,87.884 54.402,88.918 56.955,88.918C59.668,88.918 61.153,88.031 61.153,86.529C61.153,84.623 59.635,84.396 58.117,84.284C56.339,84.155 56.048,83.993 56.048,83.54C56.048,83.007 56.776,82.926 57.309,82.845L57.697,82.782C59.959,82.41 60.668,81.199 60.668,79.907C60.668,79.212 60.361,78.582 59.959,78.276L59.959,78.244L61.524,78.244L61.524,77.209ZM42.451,78.178L43.049,78.178C43.695,78.178 43.775,78.324 43.775,79.406L43.775,83.346C43.775,84.089 43.695,84.364 42.871,84.364L42.354,84.364L42.354,85.156L46.876,85.156L46.876,84.364L46.65,84.364C45.827,84.364 45.746,84.089 45.746,83.346L45.746,80.698C45.746,79.179 46.553,78.34 47.732,78.34C48.604,78.34 49.153,78.857 49.153,80.003L49.153,83.346C49.153,84.089 49.073,84.364 48.249,84.364L48.023,84.364L48.023,85.156L52.449,85.156L52.449,84.364L52.028,84.364C51.205,84.364 51.125,84.089 51.125,83.346L51.125,79.536C51.125,77.79 49.896,77.081 48.314,77.081C47.005,77.081 46.085,77.629 45.536,78.937L45.504,78.937L45.504,77.144C44.712,77.242 43.275,77.338 42.451,77.338L42.451,78.178ZM38.075,74.578C38.075,75.271 38.494,75.789 39.253,75.789C40.013,75.789 40.432,75.271 40.432,74.578C40.432,73.882 40.013,73.366 39.253,73.366C38.494,73.366 38.075,73.882 38.075,74.578ZM36.976,78.178L37.574,78.178C38.22,78.178 38.301,78.324 38.301,79.406L38.301,83.346C38.301,84.089 38.22,84.364 37.396,84.364L36.879,84.364L36.879,85.156L41.595,85.156L41.595,84.364L41.175,84.364C40.352,84.364 40.271,84.089 40.271,83.346L40.271,77.144C39.237,77.242 37.8,77.338 36.976,77.338L36.976,78.178ZM26.124,78.178L26.721,78.178C27.367,78.178 27.448,78.324 27.448,79.406L27.448,83.346C27.448,84.089 27.367,84.364 26.544,84.364L26.027,84.364L26.027,85.156L30.549,85.156L30.549,84.364L30.323,84.364C29.499,84.364 29.418,84.089 29.418,83.346L29.418,80.698C29.418,79.179 30.226,78.34 31.405,78.34C32.277,78.34 32.826,78.857 32.826,80.003L32.826,83.346C32.826,84.089 32.745,84.364 31.922,84.364L31.695,84.364L31.695,85.156L36.121,85.156L36.121,84.364L35.701,84.364C34.877,84.364 34.796,84.089 34.796,83.346L34.796,79.536C34.796,77.79 33.569,77.081 31.986,77.081C30.678,77.081 29.757,77.629 29.208,78.937L29.176,78.937L29.176,77.144C28.385,77.242 26.947,77.338 26.124,77.338L26.124,78.178ZM17.29,81.248C17.29,83.637 18.452,85.414 21.166,85.414C23.879,85.414 25.042,83.637 25.042,81.248C25.042,78.857 23.879,77.081 21.166,77.081C18.452,77.081 17.29,78.857 17.29,81.248ZM19.357,81.248C19.357,79.05 19.841,78.017 21.166,78.017C22.49,78.017 22.974,79.05 22.974,81.248C22.974,83.444 22.49,84.477 21.166,84.477C19.841,84.477 19.357,83.444 19.357,81.248ZM9.292,78.178L9.986,78.178C10.632,78.178 10.713,78.324 10.713,79.406L10.713,83.346C10.713,84.089 10.632,84.364 9.809,84.364L9.292,84.364L9.292,85.156L14.444,85.156L14.444,84.364L13.588,84.364C12.764,84.364 12.683,84.089 12.683,83.346L12.683,80.698C12.683,79.341 13.426,78.34 14.169,78.34C14.799,78.34 14.977,78.792 14.993,79.599L16.543,79.599L16.543,77.275C16.172,77.144 15.72,77.081 15.251,77.081C13.943,77.081 13.023,77.629 12.473,78.937L12.441,78.937L12.441,77.144C11.65,77.242 10.212,77.338 9.292,77.338L9.292,78.178ZM5.529,79.89C5.529,81.295 5.125,81.973 4.253,81.973C3.397,81.973 2.848,81.361 2.848,79.907C2.848,78.501 3.333,77.968 4.237,77.968C5.012,77.968 5.529,78.42 5.529,79.89ZM6.207,86.511C6.207,87.254 5.707,88.031 4.172,88.031C2.816,88.031 2.283,87.383 2.283,86.592C2.283,85.737 2.767,85.027 4.221,85.027C5.626,85.027 6.207,85.688 6.207,86.511ZM8.549,77.209L6.159,77.419C5.707,77.29 4.964,77.081 4.285,77.081C2.17,77.081 0.781,78.291 0.781,79.859C0.781,81.328 1.701,82.054 2.913,82.443L2.913,82.474C1.798,82.572 1.33,82.975 1.33,83.492C1.33,84.04 1.701,84.316 2.783,84.526L2.783,84.557C1.653,84.67 0.313,85.268 0.313,86.577C0.313,87.884 1.427,88.918 3.979,88.918C6.692,88.918 8.178,88.031 8.178,86.529C8.178,84.623 6.659,84.396 5.141,84.284C3.365,84.155 3.074,83.993 3.074,83.54C3.074,83.007 3.801,82.926 4.334,82.845L4.721,82.782C6.982,82.41 7.693,81.199 7.693,79.907C7.693,79.212 7.386,78.582 6.982,78.276L6.982,78.244L8.549,78.244L8.549,77.209Z" style="fill:rgb(237,25,58);fill-rule:nonzero;"/>
        </g>
        <g transform="matrix(4.16667,0,0,4.16667,55046.5,14377.1)">
            <path d="M93.729,62.125L95.15,62.125L95.15,67.196C95.15,67.939 95.07,68.214 94.246,68.214L93.729,68.214L93.729,69.005L98.881,69.005L98.881,68.214L98.025,68.214C97.201,68.214 97.121,67.939 97.121,67.196L97.121,62.125L99.236,62.125L99.236,61.188L97.121,61.188L97.121,59.59C97.121,58.622 97.508,58.152 98.17,58.152C98.767,58.152 98.977,58.508 98.977,59.574L100.334,59.574L100.334,57.442C99.688,57.312 98.977,57.215 98.186,57.215C95.248,57.215 95.15,58.993 95.15,61.188L93.729,61.188L93.729,62.125ZM84.992,65.097C84.992,67.487 86.154,69.263 88.869,69.263C91.582,69.263 92.744,67.487 92.744,65.097C92.744,62.707 91.582,60.93 88.869,60.93C86.154,60.93 84.992,62.707 84.992,65.097ZM87.059,65.097C87.059,62.9 87.543,61.868 88.869,61.868C90.193,61.868 90.676,62.9 90.676,65.097C90.676,67.293 90.193,68.328 88.869,68.328C87.543,68.328 87.059,67.293 87.059,65.097ZM77.078,68.811L76.303,70.783C76.093,71.347 75.883,71.686 75.269,71.686L74.543,71.686L74.543,72.477L78.871,72.477L78.871,71.686L78.338,71.686C77.709,71.686 77.531,71.541 77.531,71.202C77.531,70.943 77.693,70.572 77.789,70.345L80.955,62.771C81.18,62.238 81.326,61.98 81.666,61.98L82.02,61.98L82.02,61.188L78.596,61.188L78.596,61.98L79.275,61.98C79.549,61.98 79.662,62.028 79.662,62.254C79.662,62.4 79.582,62.593 79.484,62.82L78.015,66.582L76.691,62.998C76.594,62.74 76.48,62.513 76.48,62.27C76.48,62.044 76.642,61.98 76.918,61.98L77.514,61.98L77.514,61.188L73.509,61.188L73.509,61.98L73.752,61.98C74.139,61.98 74.334,62.222 74.656,62.998L77.078,68.811ZM66.258,62.125L67.679,62.125L67.679,66.76C67.679,68.763 68.584,69.296 70.215,69.296C71.781,69.296 72.685,68.521 72.685,66.792L72.685,66.437L71.33,66.437L71.33,67.261C71.33,67.956 71.07,68.262 70.49,68.262C69.908,68.262 69.65,67.956 69.65,67.261L69.65,62.125L72.234,62.125L72.234,61.188L69.65,61.188L69.65,58.912L68.244,58.912C68.115,60.542 67.76,61.011 66.258,61.188L66.258,62.125ZM61.978,58.427C61.978,59.122 62.398,59.638 63.158,59.638C63.916,59.638 64.336,59.122 64.336,58.427C64.336,57.732 63.916,57.215 63.158,57.215C62.398,57.215 61.978,57.732 61.978,58.427ZM60.88,62.028L61.477,62.028C62.123,62.028 62.205,62.174 62.205,63.256L62.205,67.196C62.205,67.939 62.123,68.214 61.3,68.214L60.783,68.214L60.783,69.005L65.5,69.005L65.5,68.214L65.08,68.214C64.255,68.214 64.174,67.939 64.174,67.196L64.174,60.996C63.141,61.092 61.703,61.188 60.88,61.188L60.88,62.028ZM53.144,68.748C53.613,68.94 54.791,69.263 56.117,69.263C57.811,69.263 59.604,68.538 59.604,66.647C59.604,65.42 58.99,64.952 57.601,64.499L56.277,64.063C55.535,63.821 55.115,63.385 55.115,62.771C55.115,62.125 55.584,61.818 56.326,61.818C57.488,61.818 57.795,62.335 57.795,63.58L59.152,63.58L59.152,61.367C58.683,61.157 57.601,60.93 56.375,60.93C54.468,60.93 53.144,61.818 53.144,63.289C53.144,64.548 54.048,65.226 55.922,65.791C57.408,66.244 57.634,66.599 57.634,67.196C57.634,67.939 56.955,68.375 55.922,68.375C54.807,68.375 54.502,67.632 54.502,66.486L53.144,66.486L53.144,68.748ZM44.759,62.028L45.454,62.028C46.1,62.028 46.18,62.174 46.18,63.256L46.18,67.196C46.18,67.939 46.1,68.214 45.276,68.214L44.759,68.214L44.759,69.005L49.911,69.005L49.911,68.214L49.055,68.214C48.232,68.214 48.151,67.939 48.151,67.196L48.151,64.548C48.151,63.191 48.894,62.19 49.637,62.19C50.266,62.19 50.445,62.642 50.46,63.45L52.011,63.45L52.011,61.124C51.639,60.996 51.187,60.93 50.719,60.93C49.41,60.93 48.49,61.479 47.941,62.788L47.909,62.788L47.909,60.996C47.117,61.092 45.68,61.188 44.759,61.188L44.759,62.028ZM43.58,65.226L43.58,64.854C43.58,62.141 42.498,60.93 39.898,60.93C37.185,60.93 36.022,62.707 36.022,65.097C36.022,67.487 37.185,69.263 39.898,69.263C42.595,69.263 43.403,67.875 43.419,66.486L41.772,66.486C41.755,67.697 41.271,68.328 40.092,68.328C38.105,68.328 38.089,66.325 38.089,65.226L43.58,65.226ZM38.089,64.29C38.089,62.933 38.493,61.818 39.882,61.818C41.271,61.818 41.61,62.965 41.61,64.29L38.089,64.29ZM32.113,61.98L32.791,61.98C33.162,61.98 33.259,62.078 33.259,62.19C33.259,62.319 33.227,62.48 33.179,62.593L31.499,67.39L31.467,67.39L29.916,62.836C29.868,62.674 29.771,62.48 29.771,62.27C29.771,62.093 29.932,61.98 30.417,61.98L30.95,61.98L30.95,61.188L26.912,61.188L26.912,61.98L27.106,61.98C27.461,61.98 27.558,62.078 27.768,62.61L30.272,69.102L32.177,69.102L34.68,62.529C34.842,62.109 34.987,61.98 35.326,61.98L35.536,61.98L35.536,61.188L32.113,61.188L32.113,61.98ZM23.132,58.427C23.132,59.122 23.552,59.638 24.311,59.638C25.07,59.638 25.49,59.122 25.49,58.427C25.49,57.732 25.07,57.215 24.311,57.215C23.552,57.215 23.132,57.732 23.132,58.427ZM22.034,62.028L22.631,62.028C23.277,62.028 23.358,62.174 23.358,63.256L23.358,67.196C23.358,67.939 23.277,68.214 22.454,68.214L21.937,68.214L21.937,69.005L26.653,69.005L26.653,68.214L26.233,68.214C25.409,68.214 25.328,67.939 25.328,67.196L25.328,60.996C24.295,61.092 22.857,61.188 22.034,61.188L22.034,62.028ZM11.181,62.028L11.779,62.028C12.425,62.028 12.505,62.174 12.505,63.256L12.505,67.196C12.505,67.939 12.425,68.214 11.601,68.214L11.084,68.214L11.084,69.005L15.606,69.005L15.606,68.214L15.38,68.214C14.557,68.214 14.476,67.939 14.476,67.196L14.476,64.548C14.476,63.029 15.283,62.19 16.462,62.19C17.334,62.19 17.883,62.707 17.883,63.853L17.883,67.196C17.883,67.939 17.803,68.214 16.979,68.214L16.753,68.214L16.753,69.005L21.178,69.005L21.178,68.214L20.758,68.214C19.934,68.214 19.854,67.939 19.854,67.196L19.854,63.385C19.854,61.641 18.626,60.93 17.044,60.93C15.735,60.93 14.815,61.479 14.266,62.788L14.234,62.788L14.234,60.996C13.442,61.092 12.005,61.188 11.181,61.188L11.181,62.028ZM7.273,69.005L10.325,69.005L10.325,68.214L9.905,68.214C9.082,68.214 9.001,67.939 9.001,67.196L9.001,60.996C7.967,61.092 6.53,61.188 5.706,61.188L5.706,62.028L6.304,62.028C6.95,62.028 7.031,62.174 7.031,63.256L7.031,65.468C7.031,67.132 6.433,68.004 5.06,68.004C4.14,68.004 3.623,67.536 3.623,66.582L3.623,60.996C2.589,61.092 1.152,61.188 0.328,61.188L0.328,62.028L0.926,62.028C1.572,62.028 1.653,62.174 1.653,63.256L1.653,67.036C1.653,68.538 2.622,69.263 4.221,69.263C5.852,69.263 6.869,68.553 7.241,67.471L7.273,67.471L7.273,69.005Z" style="fill:rgb(237,25,58);fill-rule:nonzero;"/>
        </g>
        <g transform="matrix(4.16667,0,0,4.16667,55046.5,14377.1)">
            <path d="M69.197,14.005L40.518,49.403L38.239,49.4L66.915,14.007L69.197,14.005Z" style="fill:rgb(237,25,58);fill-rule:nonzero;"/>
        </g>
        <g transform="matrix(4.16667,0,0,4.16667,55046.5,14377.1)">
            <path d="M13.853,7.113C13.645,7.145 13.351,7.228 13.179,6.856C13.024,6.519 13.607,5.973 13.8,5.796C14.05,5.568 13.725,5.323 13.534,5.589C13.481,5.664 13.024,6.31 12.665,6.31C12.109,6.31 12.141,5.657 12.141,5.657C12.141,5.657 11.52,5.262 11.52,4.003C11.52,2.886 12.259,2.351 12.259,2.351C12.259,2.351 12.264,1.713 12.762,1.73C13.259,1.746 13.581,2.431 13.613,2.478C13.864,2.856 14.18,2.534 13.96,2.265C13.439,1.629 13.329,1.128 13.899,0.861C14.106,0.389 14.731,0.057 15.413,0.003L15.436,0.002L15.458,0C16.14,0.057 16.765,0.389 16.972,0.861C17.542,1.128 17.432,1.629 16.911,2.265C16.691,2.534 17.007,2.856 17.259,2.478C17.29,2.431 17.612,1.746 18.11,1.73C18.607,1.713 18.613,2.351 18.613,2.351C18.613,2.351 19.351,2.886 19.351,4.003C19.351,5.262 18.73,5.657 18.73,5.657C18.73,5.657 18.762,6.31 18.206,6.31C17.848,6.31 17.391,5.664 17.337,5.589C17.147,5.323 16.821,5.568 17.071,5.796C17.264,5.973 17.848,6.519 17.692,6.856C17.521,7.228 17.227,7.145 17.018,7.113C17.018,7.113 16.827,7.445 16.538,7.446C17.982,8.525 20.249,7.914 20.553,7.123C20.553,7.123 20.169,7.2 20.173,6.797C20.176,6.554 20.424,6.421 20.759,6.373C20.689,6.219 20.654,6.034 20.666,5.832C20.699,5.267 21.089,4.791 21.539,4.772C21.988,4.752 22.325,5.195 22.292,5.761C22.276,6.045 22.168,6.308 22.008,6.5C22.337,6.613 22.569,6.782 22.538,6.979C22.458,7.498 21.977,7.37 21.977,7.37C21.919,8.557 23.729,8.784 24.192,8.478C24.009,7.792 24.282,7.586 24.491,7.402C24.64,7.271 25.083,6.998 25.144,6.957C25.282,6.868 25.354,6.675 25.267,6.605C25.186,6.538 25.005,6.653 24.919,6.748C24.797,6.887 24.582,7.212 24.245,7.123C23.838,7.017 24.014,6.55 23.945,6.299C23.511,4.716 23.882,3.613 25.465,2.95C25.465,2.95 26.067,2.316 26.607,2.602C27.124,2.875 26.803,3.721 26.803,3.721L26.963,3.795C27.541,2.747 28.377,1.986 29.576,1.956C30.426,1.935 30.836,2.436 30.869,3.122C30.943,4.65 29.381,4.081 29.503,3.509C29.503,3.509 29.125,3.548 28.917,3.88C28.917,3.785 28.929,2.877 28.119,3.357C27.888,3.494 27.48,4.18 27.45,4.267C27.349,4.567 27.495,4.615 27.338,4.909C27.215,5.139 27.043,5.192 26.969,5.353C26.894,5.513 27.001,5.829 26.899,6.032C26.775,6.281 26.604,6.299 26.492,6.525C26.403,6.703 25.272,9.585 25.272,9.585C25.272,9.585 25.722,9.873 25.636,10.302C25.522,10.875 25.157,10.751 24.963,11.128C18.821,9.548 12.464,9.54 5.894,11.102C5.697,10.757 5.347,10.862 5.235,10.302C5.149,9.873 5.599,9.585 5.599,9.585C5.599,9.585 4.468,6.703 4.379,6.525C4.267,6.299 4.096,6.281 3.972,6.032C3.87,5.829 3.977,5.513 3.902,5.353C3.828,5.192 3.656,5.139 3.534,4.909C3.377,4.615 3.522,4.567 3.421,4.267C3.392,4.18 2.983,3.494 2.752,3.357C1.943,2.877 1.955,3.785 1.954,3.88C1.747,3.548 1.368,3.509 1.368,3.509C1.49,4.081 -0.072,4.65 0.002,3.122C0.035,2.436 0.445,1.935 1.295,1.956C2.495,1.986 3.33,2.747 3.908,3.795L4.069,3.721C4.069,3.721 3.748,2.875 4.265,2.602C4.804,2.316 5.406,2.95 5.406,2.95C6.989,3.613 7.36,4.716 6.926,6.299C6.857,6.55 7.033,7.017 6.626,7.123C6.289,7.212 6.075,6.887 5.952,6.748C5.867,6.653 5.686,6.538 5.604,6.605C5.518,6.675 5.589,6.868 5.727,6.957C5.788,6.998 6.231,7.271 6.38,7.402C6.589,7.586 6.862,7.792 6.68,8.478C7.142,8.784 8.952,8.557 8.895,7.37C8.895,7.369 8.413,7.498 8.333,6.979C8.303,6.782 8.534,6.613 8.863,6.5C8.703,6.308 8.596,6.045 8.579,5.761C8.546,5.195 8.883,4.752 9.333,4.772C9.782,4.791 10.173,5.267 10.206,5.832C10.217,6.034 10.182,6.219 10.112,6.373C10.447,6.421 10.696,6.554 10.698,6.797C10.702,7.2 10.318,7.123 10.318,7.123C10.622,7.914 12.889,8.525 14.334,7.446C14.044,7.445 13.853,7.113 13.853,7.113ZM14.374,4.157C14.374,4.743 14.849,5.219 15.435,5.219C16.022,5.219 16.497,4.743 16.497,4.157C16.497,3.571 16.022,3.096 15.435,3.096C14.849,3.096 14.374,3.571 14.374,4.157ZM20.232,8.761C20.689,8.748 21.583,8.935 21.583,8.935C21.583,8.935 21.203,8.509 21.029,8.221C21.029,8.221 20.826,8.411 20.703,8.499C20.607,8.57 20.232,8.761 20.232,8.761ZM15.436,7.83C15.257,8.029 14.911,8.37 14.535,8.498C14.535,8.498 15.154,8.483 15.422,8.479L15.449,8.479C15.717,8.483 16.337,8.498 16.337,8.498C15.96,8.37 15.614,8.029 15.436,7.83ZM10.639,8.761C10.639,8.761 10.264,8.57 10.168,8.499C10.045,8.411 9.842,8.221 9.842,8.221C9.668,8.509 9.288,8.935 9.288,8.935C9.288,8.935 10.182,8.748 10.639,8.761ZM24.692,11.628C24.986,11.707 25.4,11.998 25.286,12.422C25.172,12.849 24.669,12.893 24.374,12.814C24.079,12.735 23.666,12.445 23.78,12.02C23.894,11.594 24.397,11.549 24.692,11.628ZM20.833,11.514L19.938,12.266L19.187,11.37L20.082,10.619L20.833,11.514ZM6.6,12.814C6.305,12.893 5.802,12.849 5.688,12.422C5.574,11.998 5.988,11.707 6.282,11.628C6.577,11.549 7.08,11.594 7.194,12.02C7.308,12.445 6.895,12.735 6.6,12.814ZM14.554,11.231C14.554,10.894 14.972,10.62 15.487,10.62C16.002,10.62 16.42,10.894 16.42,11.231C16.42,11.569 16.002,11.842 15.487,11.842C14.972,11.842 14.554,11.569 14.554,11.231ZM10.141,11.514L10.892,10.619L11.787,11.37L11.036,12.266L10.141,11.514ZM2.484,38.537C2.586,38.129 3.019,38.221 3.019,38.221C3.019,38.221 2.916,37.846 3.298,37.673C3.722,37.484 3.933,37.952 3.933,37.952L4.111,39.157L2.826,39.114C2.826,39.114 2.371,38.988 2.484,38.537ZM4.304,36.541C4.405,36.136 4.839,36.227 4.839,36.227C4.839,36.227 4.736,35.852 5.118,35.68C5.542,35.489 5.752,35.957 5.752,35.957L5.93,37.163L4.646,37.12C4.646,37.119 4.191,36.993 4.304,36.541ZM6.123,34.546C6.225,34.141 6.658,34.232 6.658,34.232C6.658,34.232 6.555,33.857 6.937,33.685C7.361,33.495 7.572,33.962 7.572,33.962L7.75,35.167L6.465,35.124C6.465,35.124 6.01,34.998 6.123,34.546ZM15.447,16.075C15.549,15.667 15.982,15.758 15.982,15.758C15.982,15.758 15.879,15.383 16.261,15.211C16.685,15.022 16.895,15.49 16.895,15.49L17.074,16.695L15.789,16.652C15.789,16.652 15.334,16.525 15.447,16.075ZM17.225,22.877C17.327,22.471 17.76,22.562 17.76,22.562C17.76,22.562 17.657,22.187 18.039,22.016C18.463,21.825 18.673,22.292 18.673,22.292L18.852,23.498L17.567,23.456C17.567,23.455 17.112,23.329 17.225,22.877ZM19.36,20.617C19.462,20.209 19.895,20.302 19.895,20.302C19.895,20.302 19.793,19.925 20.175,19.754C20.599,19.564 20.809,20.032 20.809,20.032L20.987,21.238L19.703,21.195C19.703,21.195 19.248,21.068 19.36,20.617ZM21.496,18.356C21.598,17.95 22.031,18.04 22.031,18.04C22.031,18.04 21.928,17.665 22.311,17.494C22.734,17.303 22.945,17.771 22.945,17.771L23.123,18.977L21.839,18.934C21.839,18.934 21.383,18.807 21.496,18.356ZM23.632,16.095C23.734,15.689 24.167,15.78 24.167,15.78C24.167,15.78 24.064,15.405 24.446,15.233C24.87,15.041 25.081,15.511 25.081,15.511L25.259,16.715L23.974,16.672C23.974,16.672 23.519,16.545 23.632,16.095ZM1.275,31.315C1.377,30.909 1.81,30.999 1.81,30.999C1.81,30.999 1.707,30.623 2.089,30.453C2.513,30.262 2.724,30.73 2.724,30.73L2.902,31.936L1.617,31.893C1.617,31.893 1.162,31.766 1.275,31.315ZM6.234,43.416C6.336,43.011 6.769,43.102 6.769,43.102C6.769,43.102 6.666,42.727 7.048,42.555C7.472,42.364 7.683,42.832 7.683,42.832L7.861,44.038L6.576,43.995C6.576,43.994 6.121,43.868 6.234,43.416ZM8.345,41.121C8.447,40.714 8.88,40.806 8.88,40.806C8.88,40.806 8.778,40.431 9.16,40.258C9.583,40.068 9.794,40.537 9.794,40.537L9.972,41.742L8.688,41.699C8.688,41.699 8.232,41.572 8.345,41.121ZM10.457,38.825C10.559,38.418 10.992,38.509 10.992,38.509C10.992,38.509 10.889,38.134 11.271,37.962C11.695,37.772 11.905,38.24 11.905,38.24L12.084,39.446L10.799,39.403C10.799,39.403 10.344,39.276 10.457,38.825ZM12.568,36.529C12.67,36.122 13.103,36.212 13.103,36.212C13.103,36.212 13,35.837 13.382,35.666C13.806,35.476 14.017,35.944 14.017,35.944L14.195,37.15L12.91,37.107C12.91,37.107 12.455,36.98 12.568,36.529ZM21.867,26.767C21.969,26.36 22.402,26.451 22.402,26.451C22.402,26.451 22.299,26.076 22.682,25.905C23.105,25.713 23.316,26.182 23.316,26.182L23.494,27.388L22.21,27.345C22.21,27.345 21.754,27.217 21.867,26.767ZM23.771,24.69C23.873,24.284 24.306,24.374 24.306,24.374C24.306,24.374 24.203,23.998 24.585,23.828C25.009,23.637 25.22,24.105 25.22,24.105L25.398,25.311L24.113,25.268C24.113,25.268 23.658,25.141 23.771,24.69ZM25.675,22.613C25.777,22.207 26.21,22.297 26.21,22.297C26.21,22.297 26.107,21.922 26.489,21.75C26.913,21.56 27.124,22.029 27.124,22.029L27.302,23.234L26.017,23.191C26.017,23.191 25.562,23.064 25.675,22.613ZM27.579,20.536C27.681,20.129 28.114,20.221 28.114,20.221C28.114,20.221 28.011,19.846 28.393,19.673C28.817,19.483 29.028,19.952 29.028,19.952L29.206,21.157L27.921,21.114C27.921,21.114 27.466,20.987 27.579,20.536ZM12.801,45.455C12.903,45.048 13.336,45.14 13.336,45.14C13.336,45.14 13.233,44.765 13.615,44.592C14.039,44.402 14.25,44.871 14.25,44.871L14.428,46.076L13.143,46.033C13.143,46.033 12.688,45.906 12.801,45.455ZM27.59,29.087C27.692,28.681 28.125,28.772 28.125,28.772C28.125,28.772 28.022,28.397 28.404,28.225C28.828,28.035 29.039,28.502 29.039,28.502L29.217,29.707L27.932,29.665C27.932,29.665 27.477,29.539 27.59,29.087ZM13.285,30.731C13.285,30.667 13.386,30.678 13.578,30.646C13.77,30.614 13.941,30.549 13.941,30.614C13.941,30.709 13.808,30.634 13.808,30.79L13.808,32.29C13.808,32.365 13.909,32.311 13.909,32.37C13.909,32.445 13.728,32.413 13.594,32.413C13.455,32.413 13.279,32.445 13.279,32.386C13.279,32.285 13.402,32.386 13.402,32.29L13.402,30.865C13.402,30.714 13.285,30.854 13.285,30.731ZM11.656,31.379C11.656,31.337 11.709,31.332 11.805,31.284C11.902,31.237 11.96,31.183 12.046,31.257C12.131,31.332 12.595,31.866 12.595,31.866L12.595,31.108C12.595,31.023 12.446,31.134 12.446,31.049C12.446,30.986 12.51,30.986 12.616,30.943C12.723,30.9 12.878,30.783 12.878,30.857C12.878,30.948 12.766,30.92 12.766,31.039L12.766,32.5C12.766,32.623 12.755,32.623 12.702,32.623C12.67,32.623 11.931,31.693 11.931,31.693L11.931,32.686C11.931,32.776 12.11,32.651 12.11,32.736C12.11,32.784 12.003,32.811 11.896,32.854C11.789,32.896 11.64,32.965 11.64,32.912C11.64,32.822 11.773,32.854 11.773,32.763L11.773,31.477C11.773,31.379 11.656,31.455 11.656,31.379ZM11.078,32.294C11.078,31.675 10.683,31.906 10.683,31.906L10.683,33.179C10.683,33.179 11.078,33.17 11.078,32.294ZM10.155,32.039C10.155,31.994 10.347,31.922 10.475,31.863C10.705,31.755 11.447,31.376 11.447,32.29C11.447,33.127 10.859,33.267 10.673,33.352C10.486,33.438 10.233,33.561 10.214,33.52C10.181,33.454 10.315,33.443 10.315,33.293L10.315,32.252C10.315,31.991 10.155,32.126 10.155,32.039ZM12.74,28.256C12.736,28.217 12.891,28.191 12.97,28.169C13.104,28.133 13.189,28.108 13.245,28.164C13.301,28.221 13.575,28.663 13.575,28.663C13.575,28.663 13.928,28.164 13.956,28.13C13.984,28.097 13.995,28.049 14.136,28.046C14.298,28.043 14.371,28.027 14.371,28.061C14.371,28.122 14.27,28.091 14.264,28.221C14.26,28.321 14.264,29.515 14.264,29.582C14.264,29.734 14.368,29.683 14.368,29.734C14.368,29.784 14.301,29.764 14.063,29.762C13.867,29.758 13.735,29.787 13.735,29.749C13.735,29.683 13.839,29.739 13.839,29.602L13.839,28.691C13.839,28.691 13.497,29.19 13.48,29.19C13.46,29.19 13.043,28.554 13.043,28.554L13.043,29.644C13.043,29.818 13.216,29.715 13.216,29.784C13.216,29.818 13.084,29.832 12.987,29.857C12.875,29.884 12.777,29.927 12.765,29.896C12.741,29.828 12.886,29.865 12.886,29.668C12.886,29.495 12.888,28.495 12.886,28.421C12.88,28.229 12.746,28.313 12.74,28.256ZM12.247,28.447C12.305,28.419 12.458,28.336 12.476,28.362C12.503,28.399 12.415,28.407 12.354,28.67C12.331,28.767 12.044,30.278 11.937,30.331C11.903,30.349 11.416,29.141 11.371,29.044C11.291,28.873 11.206,28.989 11.19,28.928C11.18,28.889 11.313,28.838 11.424,28.789C11.483,28.762 11.698,28.631 11.721,28.658C11.766,28.708 11.603,28.71 11.681,28.896C11.733,29.02 12.006,29.621 12.006,29.621C12.006,29.621 12.166,28.943 12.215,28.713C12.262,28.485 12.087,28.599 12.081,28.548C12.078,28.52 12.166,28.482 12.241,28.45L12.247,28.447ZM10.378,30.033L10.378,30.863C10.378,30.863 10.805,30.774 10.805,30.256C10.805,29.814 10.378,30.033 10.378,30.033ZM10.372,29.305L10.372,29.855C10.372,29.855 10.682,29.739 10.682,29.472C10.682,29.152 10.372,29.305 10.372,29.305ZM10.405,29.162C10.586,29.092 11.061,28.997 11.061,29.408C11.061,29.702 10.869,29.771 10.869,29.771C10.869,29.771 11.216,29.834 11.216,30.123C11.216,30.454 11.056,30.684 10.875,30.78C10.782,30.829 10.213,31.105 10.159,31.137C10.106,31.168 9.979,31.238 9.965,31.207C9.932,31.134 10.058,31.148 10.058,30.934L10.058,29.603C10.058,29.32 9.925,29.445 9.925,29.371C9.925,29.325 10.219,29.233 10.405,29.162ZM13.367,25.415L13.367,26.086C13.367,26.086 13.683,26.066 13.683,25.703C13.683,25.271 13.367,25.415 13.367,25.415ZM14.202,26.915C14.298,26.927 14.341,26.889 14.341,26.889C14.341,26.889 14.309,27.128 14.058,27.128C13.717,27.128 13.722,26.541 13.626,26.371C13.53,26.2 13.369,26.29 13.369,26.29L13.369,26.889C13.369,27.081 13.489,26.998 13.489,27.068C13.489,27.097 13.396,27.113 13.396,27.113C13.396,27.113 13.135,27.188 13.039,27.208C12.943,27.23 12.901,27.251 12.901,27.208C12.901,27.132 12.996,27.182 12.996,26.972L12.996,25.736C12.996,25.496 12.858,25.576 12.855,25.508C12.853,25.469 12.951,25.45 13.047,25.425C13.208,25.386 13.269,25.335 13.498,25.282C13.719,25.231 14.107,25.335 14.107,25.645C14.107,25.987 13.914,26.056 13.808,26.136C14.202,26.328 14.026,26.894 14.202,26.915ZM11.609,26.037C11.769,25.984 12.052,25.864 12.356,25.693C12.397,25.669 12.521,25.592 12.58,25.704C12.641,25.819 12.687,25.971 12.65,25.987C12.595,26.009 12.559,25.964 12.49,25.928C12.429,25.896 12.351,25.859 12.276,25.879C12.201,25.901 12.099,25.946 12.099,25.946L12.1,26.472C12.1,26.472 12.286,26.472 12.308,26.371C12.325,26.29 12.358,26.184 12.417,26.167C12.451,26.159 12.441,26.267 12.445,26.417C12.447,26.47 12.45,26.498 12.451,26.527C12.455,26.712 12.444,26.774 12.417,26.779C12.366,26.789 12.323,26.654 12.311,26.622C12.289,26.566 12.1,26.617 12.1,26.648L12.1,27.404C12.1,27.404 12.244,27.327 12.308,27.289C12.395,27.238 12.542,27.069 12.599,26.969C12.655,26.87 12.677,26.789 12.729,26.797C12.762,26.803 12.692,27.128 12.692,27.128C12.692,27.128 12.687,27.256 12.58,27.31C12.474,27.364 11.877,27.643 11.825,27.667C11.723,27.715 11.6,27.804 11.598,27.755C11.595,27.681 11.697,27.721 11.697,27.499L11.694,26.238C11.694,26.238 11.69,26.131 11.609,26.117C11.547,26.107 11.489,26.078 11.609,26.037ZM10.213,26.617C10.299,26.586 10.542,26.483 10.555,26.512C10.589,26.587 10.429,26.571 10.482,26.723C10.527,26.851 10.808,27.519 10.808,27.519L11.054,26.558C11.107,26.35 10.939,26.421 10.925,26.371C10.916,26.335 11.048,26.295 11.123,26.264C11.184,26.235 11.382,26.15 11.393,26.175C11.419,26.243 11.318,26.243 11.265,26.43C11.201,26.651 10.827,28.155 10.723,28.211C10.664,28.244 10.149,26.947 10.109,26.846C10.069,26.745 9.93,26.783 9.917,26.723C9.911,26.699 10.127,26.646 10.213,26.617ZM16.975,30.782C16.972,30.742 17.033,30.757 17.124,30.786C17.215,30.813 17.324,30.839 17.399,30.961C17.473,31.083 18.036,32.045 18.036,32.045L18.032,31.178C18.032,31.063 17.93,31.06 17.93,31.012C17.93,30.967 18.008,31.012 18.09,31.04C18.171,31.067 18.29,31.08 18.29,31.118C18.29,31.155 18.185,31.101 18.185,31.202L18.185,32.838C18.185,32.838 18.185,32.91 18.137,32.845C18.099,32.792 17.256,31.436 17.256,31.436C17.256,31.436 17.259,32.286 17.256,32.374C17.253,32.476 17.365,32.465 17.365,32.517C17.365,32.568 17.246,32.54 17.172,32.527C17.097,32.513 16.985,32.524 16.985,32.458C16.985,32.395 17.087,32.493 17.087,32.34L17.087,30.948C17.087,30.842 16.978,30.835 16.975,30.782ZM17.771,28.275C17.771,28.213 18.039,28.322 18.249,28.382C18.459,28.444 18.855,28.508 18.855,28.637C18.855,28.794 18.896,28.946 18.845,28.946C18.814,28.946 18.75,28.746 18.686,28.681C18.588,28.582 18.388,28.539 18.334,28.529C18.279,28.519 18.293,28.522 18.293,28.56L18.293,29.068C18.293,29.068 18.428,29.134 18.503,29.102C18.578,29.068 18.588,28.949 18.632,28.958C18.675,28.969 18.659,29.061 18.652,29.237C18.645,29.413 18.666,29.573 18.621,29.556C18.578,29.539 18.574,29.39 18.483,29.3C18.391,29.212 18.29,29.2 18.29,29.2L18.29,30.03C18.29,30.03 18.391,30.142 18.601,30.074C18.811,30.005 18.96,29.864 18.994,29.898C19.028,29.932 19.011,29.979 18.91,30.138C18.808,30.297 18.754,30.399 18.652,30.355C18.55,30.311 18.32,30.223 18.178,30.159C18.036,30.094 17.741,30.023 17.741,29.961C17.741,29.901 17.886,30.013 17.886,29.836L17.886,28.416C17.886,28.346 17.771,28.323 17.771,28.275ZM17.428,28.032C17.503,28.032 17.488,28.308 17.499,28.398C17.52,28.569 17.571,28.72 17.517,28.723C17.436,28.727 17.339,28.454 17.208,28.319C17.085,28.192 16.633,27.96 16.633,28.916C16.633,29.735 16.988,29.717 17.182,29.657C17.372,29.597 17.451,29.447 17.473,29.461C17.496,29.477 17.316,29.866 16.92,29.911C16.524,29.955 16.136,29.567 16.136,28.957C16.136,28.349 16.435,27.976 16.812,27.976C17.115,27.976 17.204,28.185 17.334,28.185C17.421,28.185 17.342,28.032 17.428,28.032ZM18.449,25.863C18.464,25.786 18.601,25.882 18.825,25.974C19.048,26.066 19.211,26.113 19.198,26.151C19.184,26.188 19.025,26.126 19.045,26.232C19.065,26.336 19.316,27.16 19.316,27.16C19.316,27.16 19.607,26.47 19.614,26.442C19.635,26.357 19.536,26.344 19.546,26.303C19.557,26.259 19.645,26.317 19.716,26.357C19.787,26.398 19.902,26.435 19.882,26.483C19.862,26.53 19.777,26.421 19.743,26.502C19.709,26.583 19.126,27.892 19.126,27.892L18.543,26.012C18.51,25.903 18.439,25.913 18.449,25.863ZM17.117,25.358C17.117,25.314 17.199,25.351 17.199,25.351L17.717,25.537C17.717,25.536 17.808,25.568 17.805,25.609C17.802,25.649 17.629,25.558 17.629,25.713L17.629,27.173C17.629,27.173 17.666,27.272 17.839,27.201C18.012,27.129 18.269,26.959 18.269,26.959C18.269,26.959 18.391,26.899 18.361,26.984C18.33,27.069 18.208,27.339 18.208,27.339C18.208,27.339 18.181,27.445 18.042,27.42C17.903,27.397 17.561,27.291 17.466,27.265C17.371,27.238 17.107,27.157 17.107,27.157C17.107,27.157 17.053,27.147 17.053,27.106C17.053,27.065 17.219,27.109 17.219,26.977L17.219,25.55C17.219,25.421 17.117,25.418 17.117,25.358ZM19.125,30.517C19.125,30.415 19.264,30.555 19.264,30.395L19.264,28.985C19.264,28.809 19.184,28.815 19.184,28.745C19.184,28.675 19.339,28.777 19.376,28.793C19.413,28.809 19.819,29.018 19.862,29.039C19.904,29.06 20.337,29.237 20.337,29.71C20.337,30.037 20.065,29.984 20.065,29.984C20.065,29.984 20.337,30.144 20.352,30.383C20.369,30.623 20.401,30.827 20.401,30.859C20.401,30.891 20.449,31.03 20.598,30.902C20.598,30.902 20.615,31.189 20.289,31.082C20.076,31.014 20.016,30.816 20.001,30.683C19.984,30.548 19.91,29.905 19.621,29.915L19.621,30.561C19.621,30.732 19.722,30.684 19.722,30.785C19.722,30.85 19.573,30.747 19.44,30.693C19.242,30.606 19.125,30.576 19.125,30.517ZM19.622,29.082L19.622,29.738C19.665,29.753 19.99,29.961 19.99,29.557C19.99,29.151 19.622,29.082 19.622,29.082ZM18.907,31.54C18.938,31.438 18.842,31.409 18.861,31.366C18.875,31.333 19.008,31.406 19.088,31.443C19.168,31.481 19.291,31.513 19.323,31.622C19.355,31.731 19.774,33.16 19.814,33.292C19.859,33.442 19.947,33.4 19.921,33.469C19.91,33.496 19.787,33.437 19.544,33.34C19.342,33.261 19.242,33.235 19.242,33.203C19.242,33.137 19.446,33.246 19.398,33.107C19.366,33.014 19.296,32.769 19.296,32.769L18.733,32.585L18.653,32.858C18.613,32.994 18.741,32.972 18.717,33.023C18.704,33.05 18.624,33.015 18.52,32.972C18.42,32.932 18.377,32.923 18.381,32.895C18.386,32.847 18.466,32.915 18.503,32.818C18.541,32.719 18.879,31.626 18.907,31.54ZM18.996,31.727L18.8,32.359L19.238,32.505L18.996,31.727ZM30.276,14.05L30.276,32.783C30.484,43.973 21.33,47.943 15.291,47.943C9.251,47.943 0.097,43.973 0.305,32.783L0.305,14.05L5.891,14.05C5.861,13.705 5.955,13.463 5.964,13.453C13.595,11.924 17.286,11.853 24.911,13.457C25.075,13.655 25.106,13.867 25.078,14.05L30.276,14.05ZM3.098,41.203L8.948,34.973L8.948,33.153L8.285,33.13C8.285,33.13 7.829,33.003 7.942,32.553C8.044,32.146 8.477,32.237 8.477,32.237C8.477,32.237 8.375,31.862 8.757,31.691C8.826,31.659 8.89,31.646 8.948,31.645L8.949,30.438L1.639,38.222C2.014,39.328 2.51,40.319 3.098,41.203ZM10.379,25.283C10.458,25.247 10.538,25.209 10.618,25.169C10.9,25.028 11.408,24.762 11.955,24.531C12.493,24.304 13.129,24.082 13.639,24.082C14.152,24.082 14.564,24.236 14.847,24.388C14.989,24.463 15.1,24.54 15.177,24.6L15.205,24.623C15.215,24.608 15.227,24.591 15.241,24.575C15.3,24.502 15.386,24.419 15.51,24.341C15.76,24.184 16.142,24.061 16.72,24.061C17.326,24.061 18.006,24.303 18.554,24.55L18.68,24.609L28.079,14.6L23.821,14.6L15.543,23.415L15.543,19.171L19.836,14.6L0.853,14.6L0.853,32.788C0.841,33.467 0.864,34.119 0.92,34.745L5.015,30.382L8.949,30.382L8.949,26.907C8.876,27.008 8.764,26.99 8.764,26.99C8.764,26.99 8.863,26.69 8.59,26.647C8.569,26.644 8.547,26.642 8.522,26.642C8.367,26.642 8.28,26.72 8.187,26.793C8.042,26.91 7.612,27.414 7.528,27.496C7.444,27.414 7.013,26.91 6.867,26.793C6.775,26.72 6.687,26.642 6.533,26.642C6.508,26.642 6.485,26.644 6.465,26.647C6.191,26.69 6.291,26.99 6.291,26.99C6.291,26.99 6.043,27.031 6.043,26.654C6.043,26.388 6.255,26.231 6.443,26.181C6.727,26.116 7.008,26.096 7.061,25.625C7.064,25.532 7.048,25.513 7.048,25.513C7.048,25.513 6.946,25.667 6.694,25.788C6.402,25.94 5.613,25.93 5.633,26.381C5.627,26.563 5.825,26.545 5.825,26.545C5.825,26.545 5.815,26.627 5.682,26.648C5.653,26.652 5.618,26.654 5.576,26.651C5.393,26.624 5.332,26.432 5.345,26.188C5.356,26.035 5.254,25.832 5.056,25.862C5.022,25.868 4.984,25.879 4.944,25.901C4.793,25.989 4.846,26.132 4.846,26.132C4.846,26.132 4.675,26.037 4.701,25.837C4.724,25.666 4.837,25.588 4.997,25.523C5.017,25.519 5.036,25.515 5.055,25.512C5.26,25.481 5.432,25.541 5.432,25.541C5.432,25.541 5.38,25.386 5.399,25.231C5.416,25.097 5.486,24.962 5.686,24.925C5.984,24.87 6.048,25.07 6.003,25.18C5.987,25.19 5.934,25.111 5.849,25.123C5.837,25.125 5.824,25.129 5.81,25.136C5.76,25.162 5.731,25.195 5.716,25.231C5.666,25.349 5.764,25.498 5.781,25.523C5.841,25.603 6.025,25.658 6.254,25.615C6.52,25.558 6.709,25.384 6.801,25.231C6.85,25.151 6.871,25.076 6.864,25.026L7.009,23.415C7.009,23.415 7.055,23.001 6.773,22.954C6.74,22.947 6.707,22.947 6.673,22.952C6.435,22.99 6.187,23.307 6.265,23.704C6.325,24.008 6.169,24.242 6.019,24.276C5.828,24.321 5.712,24.283 5.645,24.144C5.978,24.122 5.957,23.855 5.852,23.758C5.807,23.719 5.742,23.707 5.667,23.719C5.356,23.768 4.864,24.196 4.785,24.452C4.714,24.682 4.886,24.623 4.959,24.817C5.018,24.973 4.886,25.097 4.886,25.097C4.882,25.149 4.875,25.194 4.866,25.231C4.83,25.366 4.76,25.41 4.695,25.419C4.644,25.428 4.596,25.414 4.571,25.406C4.654,25.37 4.679,25.292 4.686,25.231C4.691,25.187 4.687,25.151 4.687,25.151C4.687,25.151 4.594,25.161 4.513,25.036C4.419,24.89 4.535,24.844 4.432,24.687C4.327,24.529 4.037,24.361 3.81,24.332C3.795,24.33 3.781,24.331 3.767,24.332C3.723,24.338 3.681,24.362 3.613,24.372C3.594,24.375 3.572,24.377 3.547,24.377C3.368,24.381 3.417,24.273 3.27,24.285C3.194,24.3 3.15,24.373 3.175,24.478C3.179,24.493 3.167,24.502 3.167,24.502C3.086,24.448 3.052,24.373 3.046,24.285C3.045,24.053 3.193,23.889 3.333,23.875C3.499,23.86 3.576,23.962 3.589,23.982C3.68,23.597 3.378,23.728 3.232,23.541C3.134,23.414 3.173,23.35 3.186,23.304C3.206,23.234 3.085,23.226 2.993,23.24C2.967,23.244 2.943,23.249 2.926,23.255C2.908,23.239 2.955,23.059 3.145,23.031C3.21,23.02 3.293,23.028 3.398,23.067C3.496,23.038 3.59,23.085 3.625,23.153C3.667,23.233 3.632,23.325 3.643,23.423C3.673,23.68 3.83,23.672 3.854,23.669C3.715,23.304 3.89,23.195 3.908,23.138C3.926,23.08 3.904,23.002 3.813,22.971C3.794,22.963 3.768,22.948 3.798,22.94C3.798,22.94 4.149,22.924 4.203,23.154C4.203,23.154 4.354,23.234 4.358,23.423C4.362,23.66 4.234,23.682 4.185,23.729C4.221,23.976 4.367,24.017 4.504,23.996C4.638,23.975 4.762,23.896 4.762,23.896C4.993,23.804 5.472,23.507 5.343,23.266C5.284,23.155 5.187,23.108 5.08,23.123C5.029,23.131 4.977,23.154 4.926,23.19C4.787,23.323 4.856,23.497 4.856,23.497C4.645,23.553 4.546,23.187 4.678,23.031C4.77,22.921 4.883,22.878 5.004,22.857C5.142,22.832 5.291,22.838 5.433,22.81C5.602,22.776 5.731,22.67 5.856,22.452C5.948,22.298 5.951,22.087 5.871,21.919C5.789,21.736 5.62,21.505 5.383,21.462C5.338,21.86 5.119,22.172 4.851,22.364C4.785,22.41 4.698,22.436 4.64,22.445C4.593,22.452 4.563,22.449 4.574,22.435C4.923,22.027 4.833,21.599 4.823,21.558C4.798,21.605 4.525,22.106 4.038,22.32C3.991,22.339 3.942,22.353 3.892,22.361C3.63,22.402 3.368,22.28 3.472,22.267C3.645,22.243 4.343,21.837 4.133,20.978C4.106,21.027 3.799,21.575 3.421,21.833C3.26,21.945 3.092,21.999 2.943,22.023C2.645,22.07 2.419,21.987 2.461,21.948C2.461,21.948 3.283,21.559 3.293,21.188C3.266,21.208 3.044,21.38 2.785,21.42C2.75,21.425 2.714,21.429 2.679,21.429C1.978,21.429 1.978,20.924 1.978,20.924C2.027,20.93 2.682,20.973 3.217,19.836C3.217,19.836 2.868,19.959 2.466,20.003C2.228,20.031 2.128,19.88 2.156,19.882C2.198,19.897 2.245,19.901 2.305,19.892C2.437,19.871 2.625,19.788 2.864,19.605C2.8,19.576 1.941,19.195 2.273,18.606C2.273,18.606 2.51,18.813 2.802,18.838C3.017,18.857 3.391,18.817 3.482,18.602C3.482,18.602 3.019,18.575 2.565,18.289C2.297,18.122 2.192,17.725 2.29,17.839C2.39,17.957 2.493,17.993 2.647,18.032C2.767,18.063 2.849,18.034 2.849,18.034C2.849,18.034 2.182,17.402 2.604,16.912C2.604,16.911 2.829,17.54 3.382,17.542C3.382,17.542 3.102,17.283 3.046,16.971C3.007,16.756 3.023,16.473 3.062,16.554C3.089,16.61 3.149,16.71 3.188,16.784C3.257,16.908 3.404,17.074 3.522,17.175C3.522,17.175 3.438,16.847 3.553,16.547C3.57,16.501 3.724,16.25 3.735,16.314C3.735,16.314 3.737,16.511 3.748,16.574C3.782,16.786 3.863,17.052 4.263,17.458C4.77,17.976 5.32,17.972 5.324,18.294C5.304,18.68 4.83,18.629 4.519,18.603C4.411,18.603 4.425,18.768 4.515,18.886C4.774,19.232 5.872,19.316 6.216,18.753C6.338,18.557 6.371,18.321 6.289,18.102C6.185,17.81 5.949,17.8 5.501,17.703C5.183,17.634 5.269,17.492 5.316,17.492C5.316,17.492 5.413,17.546 5.507,17.546C5.742,17.548 5.599,17.246 5.574,17.249C5.514,17.258 5.26,17.361 5.041,17.379C4.763,17.404 4.43,17.292 4.43,17.1C4.43,16.868 4.721,16.803 4.708,16.864C4.705,16.878 4.533,17.193 5.046,17.175C5.208,17.17 5.535,17.152 5.534,17.138C5.524,17.052 5.372,16.929 5.256,16.929C5.17,16.929 5.091,16.951 4.934,16.935C4.878,16.796 5.028,16.657 5.131,16.606C5.234,16.554 5.308,16.578 5.353,16.562C5.413,16.54 5.449,16.352 5.792,16.347C5.972,16.344 6.233,16.469 6.354,16.469C6.474,16.469 6.688,16.391 6.71,16.429C6.731,16.469 6.624,16.591 6.645,16.7C6.635,16.951 7.069,17.943 7.527,18.037C7.984,17.943 8.42,16.951 8.409,16.7C8.43,16.591 8.323,16.469 8.344,16.429C8.366,16.391 8.581,16.469 8.701,16.469C8.821,16.469 9.082,16.344 9.263,16.347C9.606,16.352 9.642,16.54 9.702,16.562C9.747,16.578 9.82,16.554 9.923,16.606C10.026,16.657 10.176,16.796 10.12,16.935C9.964,16.951 9.884,16.929 9.798,16.929C9.682,16.929 9.53,17.052 9.521,17.138C9.519,17.152 9.846,17.17 10.009,17.175C10.522,17.193 10.35,16.878 10.346,16.864C10.333,16.803 10.625,16.868 10.625,17.1C10.625,17.292 10.291,17.404 10.013,17.379C9.795,17.361 9.541,17.258 9.481,17.249C9.456,17.246 9.312,17.548 9.548,17.546C9.642,17.546 9.739,17.492 9.739,17.492C9.786,17.492 9.872,17.634 9.554,17.703C9.106,17.8 8.869,17.81 8.765,18.102C8.684,18.321 8.717,18.557 8.838,18.753C9.182,19.316 10.281,19.232 10.54,18.886C10.629,18.768 10.644,18.603 10.535,18.603C10.225,18.629 9.751,18.68 9.73,18.294C9.735,17.972 10.285,17.976 10.792,17.458C11.191,17.052 11.273,16.786 11.307,16.574C11.317,16.511 11.32,16.314 11.32,16.314C11.33,16.25 11.485,16.501 11.502,16.547C11.616,16.847 11.532,17.175 11.532,17.175C11.65,17.074 11.798,16.908 11.866,16.784C11.906,16.71 11.966,16.61 11.992,16.554C12.031,16.473 12.047,16.756 12.009,16.971C11.953,17.283 11.673,17.542 11.673,17.542C12.226,17.54 12.45,16.912 12.45,16.912C12.872,17.402 12.205,18.034 12.205,18.034C12.205,18.034 12.287,18.063 12.408,18.032C12.562,17.993 12.664,17.957 12.764,17.839C12.863,17.725 12.758,18.122 12.49,18.289C12.036,18.575 11.573,18.602 11.573,18.602C11.663,18.817 12.038,18.857 12.252,18.838C12.544,18.813 12.782,18.606 12.782,18.606C13.113,19.195 12.254,19.576 12.191,19.605C12.429,19.788 12.618,19.871 12.749,19.892C12.809,19.901 12.857,19.897 12.899,19.882C12.927,19.88 12.827,20.031 12.588,20.003C12.187,19.959 11.838,19.836 11.838,19.836C12.373,20.973 13.027,20.93 13.077,20.924C13.077,20.924 13.077,21.429 12.376,21.429C12.34,21.429 12.305,21.425 12.27,21.42C12.011,21.38 11.788,21.208 11.761,21.188C11.772,21.559 12.593,21.948 12.593,21.948C12.636,21.987 12.409,22.07 12.112,22.023C11.962,21.999 11.795,21.945 11.634,21.833C11.255,21.575 10.948,21.027 10.921,20.978C10.711,21.837 11.409,22.243 11.582,22.267C11.686,22.28 11.424,22.402 11.162,22.361C11.113,22.353 11.064,22.339 11.017,22.32C10.529,22.106 10.257,21.605 10.232,21.558C10.222,21.599 10.131,22.027 10.48,22.435C10.492,22.449 10.462,22.452 10.415,22.445C10.356,22.436 10.27,22.41 10.204,22.364C9.936,22.172 9.717,21.86 9.671,21.462C9.434,21.505 9.266,21.736 9.184,21.919C9.104,22.087 9.107,22.298 9.198,22.452C9.324,22.67 9.453,22.776 9.622,22.81C9.763,22.838 9.912,22.832 10.05,22.857C10.172,22.878 10.285,22.921 10.377,23.031C10.509,23.187 10.409,23.553 10.198,23.497C10.198,23.497 10.268,23.323 10.129,23.19C10.078,23.154 10.025,23.131 9.974,23.123C9.868,23.108 9.77,23.155 9.711,23.266C9.582,23.507 10.062,23.804 10.292,23.896C10.292,23.896 10.416,23.975 10.551,23.996C10.687,24.017 10.834,23.976 10.869,23.729C10.82,23.682 10.692,23.66 10.696,23.423C10.7,23.234 10.852,23.154 10.852,23.154C10.906,22.924 11.256,22.94 11.256,22.94C11.287,22.948 11.26,22.963 11.241,22.971C11.151,23.002 11.129,23.08 11.147,23.138C11.164,23.195 11.34,23.304 11.201,23.669C11.224,23.672 11.382,23.68 11.411,23.423C11.422,23.325 11.388,23.233 11.43,23.153C11.465,23.085 11.558,23.038 11.657,23.067C11.761,23.028 11.844,23.02 11.91,23.031C12.1,23.059 12.146,23.239 12.146,23.239C12.146,23.239 12.149,23.261 12.128,23.255C12.111,23.249 12.088,23.244 12.062,23.24C11.97,23.226 11.849,23.234 11.869,23.304C11.882,23.35 11.921,23.414 11.822,23.541C11.677,23.728 11.375,23.597 11.466,23.982C11.478,23.962 11.555,23.86 11.722,23.875C11.862,23.889 12.009,24.053 12.008,24.285C12.003,24.373 11.969,24.448 11.888,24.502C11.888,24.502 11.875,24.493 11.879,24.478C11.904,24.373 11.861,24.3 11.784,24.285C11.638,24.273 11.686,24.381 11.507,24.377C11.483,24.377 11.461,24.375 11.441,24.372C11.373,24.362 11.331,24.338 11.287,24.332C11.273,24.331 11.259,24.33 11.245,24.332C11.018,24.361 10.728,24.529 10.623,24.687C10.519,24.844 10.636,24.89 10.541,25.036C10.46,25.161 10.367,25.151 10.367,25.151C10.367,25.151 10.363,25.187 10.368,25.231C10.37,25.248 10.373,25.265 10.379,25.283ZM9.779,25.508C9.921,25.466 10.077,25.411 10.238,25.344C10.219,25.316 10.202,25.279 10.189,25.231C10.179,25.194 10.172,25.149 10.169,25.097C10.169,25.097 10.037,24.973 10.096,24.817C10.169,24.623 10.341,24.682 10.27,24.452C10.19,24.196 9.698,23.768 9.387,23.719C9.312,23.707 9.248,23.719 9.203,23.758C9.098,23.855 9.077,24.122 9.41,24.144C9.342,24.283 9.227,24.321 9.036,24.276C8.885,24.242 8.729,24.008 8.789,23.704C8.868,23.307 8.62,22.99 8.381,22.952C8.348,22.947 8.314,22.947 8.282,22.954C8,23.001 8.046,23.415 8.046,23.415L8.191,25.026C8.183,25.076 8.205,25.151 8.253,25.231C8.346,25.384 8.534,25.558 8.801,25.615C9.03,25.658 9.213,25.603 9.274,25.523C9.29,25.498 9.389,25.349 9.339,25.231C9.323,25.195 9.294,25.162 9.245,25.136C9.231,25.129 9.218,25.125 9.205,25.123C9.121,25.111 9.067,25.19 9.051,25.18C9.007,25.07 9.071,24.87 9.368,24.925C9.569,24.962 9.639,25.097 9.655,25.231C9.675,25.386 9.622,25.541 9.622,25.541C9.622,25.541 9.685,25.52 9.779,25.508ZM8.949,26.082C8.946,26.06 8.943,26.012 8.951,25.955C8.733,25.893 8.494,25.858 8.36,25.788C8.109,25.667 8.006,25.513 8.006,25.513C8.006,25.513 7.991,25.532 7.994,25.625C8.047,26.096 8.328,26.116 8.611,26.181C8.736,26.213 8.872,26.294 8.949,26.423L8.949,26.082ZM19.093,35.141C19.049,35.232 19.051,35.405 19.115,35.49C19.35,35.803 20.275,35.901 20.702,35.498C20.149,35.412 19.628,35.269 19.093,35.141ZM21.668,34.275C21.806,34.46 21.965,34.607 22.127,34.64C22.585,34.546 23.02,33.554 23.009,33.303C23.03,33.196 22.924,33.072 22.945,33.032C22.967,32.994 23.181,33.072 23.301,33.072C23.421,33.072 23.683,32.947 23.863,32.95C24.206,32.955 24.242,33.144 24.302,33.165C24.347,33.181 24.421,33.157 24.523,33.208C24.627,33.259 24.777,33.4 24.721,33.538C24.564,33.554 24.485,33.532 24.399,33.532C24.283,33.532 24.131,33.655 24.121,33.741C24.12,33.754 24.447,33.774 24.609,33.779C25.122,33.795 24.95,33.482 24.946,33.466C24.934,33.407 25.225,33.471 25.225,33.703C25.225,33.897 24.891,34.006 24.614,33.983C24.395,33.963 24.141,33.862 24.081,33.853C24.056,33.849 23.913,34.152 24.148,34.15C24.242,34.15 24.339,34.095 24.339,34.095C24.386,34.095 24.472,34.238 24.154,34.306C23.706,34.404 23.47,34.413 23.365,34.705C23.284,34.923 23.317,35.16 23.438,35.357C23.782,35.918 24.881,35.834 25.14,35.49C25.229,35.371 25.244,35.206 25.135,35.206C24.825,35.233 24.351,35.283 24.33,34.898C24.335,34.575 24.885,34.579 25.392,34.062C25.792,33.655 25.873,33.389 25.907,33.177C25.917,33.114 25.92,32.916 25.92,32.916C25.93,32.854 26.085,33.105 26.102,33.151C26.216,33.45 26.132,33.779 26.132,33.779C26.25,33.678 26.398,33.511 26.467,33.387C26.506,33.314 26.566,33.212 26.592,33.158C26.631,33.076 26.648,33.36 26.609,33.574C26.553,33.886 26.273,34.147 26.273,34.147C26.826,34.144 27.051,33.515 27.051,33.515C27.472,34.004 26.805,34.637 26.805,34.637C26.805,34.637 26.888,34.665 27.008,34.636C27.162,34.596 27.265,34.561 27.365,34.443C27.463,34.328 27.358,34.725 27.09,34.892C26.636,35.178 26.173,35.205 26.173,35.205C26.263,35.419 26.638,35.46 26.852,35.442C27.144,35.415 27.382,35.208 27.382,35.208C27.714,35.797 26.854,36.179 26.791,36.207C27.029,36.391 27.218,36.474 27.35,36.495C27.409,36.503 27.457,36.499 27.499,36.486C27.527,36.484 27.427,36.633 27.188,36.607C26.787,36.564 26.438,36.44 26.438,36.44C26.973,37.576 27.627,37.533 27.677,37.528C27.677,37.528 27.677,38.032 26.976,38.032C26.94,38.032 26.905,38.029 26.87,38.024C26.611,37.984 26.388,37.812 26.361,37.79C26.372,38.162 27.193,38.55 27.193,38.55C27.236,38.589 27.009,38.672 26.712,38.625C26.562,38.603 26.395,38.547 26.234,38.437C25.856,38.178 25.549,37.629 25.522,37.581C25.312,38.441 26.009,38.846 26.183,38.87C26.287,38.882 26.025,39.004 25.763,38.963C25.713,38.957 25.664,38.943 25.617,38.922C25.129,38.708 24.857,38.207 24.832,38.161C24.822,38.202 24.732,38.629 25.081,39.039C25.092,39.052 25.062,39.055 25.015,39.047C24.957,39.039 24.87,39.013 24.804,38.966C24.536,38.776 24.317,38.462 24.271,38.066C24.034,38.109 23.866,38.338 23.784,38.523C23.704,38.691 23.707,38.902 23.799,39.055C23.924,39.274 24.053,39.378 24.222,39.414C24.363,39.442 24.512,39.437 24.65,39.46C24.772,39.482 24.885,39.525 24.977,39.633C25.109,39.79 25.01,40.156 24.798,40.1C24.798,40.1 24.868,39.925 24.729,39.793C24.678,39.756 24.625,39.735 24.575,39.727C24.468,39.71 24.371,39.757 24.311,39.869C24.182,40.111 24.662,40.407 24.892,40.498C24.892,40.498 25.017,40.578 25.151,40.599C25.288,40.62 25.434,40.579 25.47,40.332C25.42,40.285 25.292,40.263 25.297,40.027C25.3,39.837 25.452,39.756 25.452,39.756C25.506,39.528 25.857,39.542 25.857,39.542C25.887,39.55 25.861,39.567 25.841,39.574C25.751,39.606 25.729,39.683 25.747,39.741C25.765,39.797 25.94,39.907 25.801,40.273C25.825,40.276 25.982,40.283 26.011,40.027C26.023,39.928 25.988,39.835 26.03,39.755C26.065,39.689 26.158,39.641 26.257,39.669C26.362,39.63 26.444,39.623 26.51,39.633C26.7,39.662 26.747,39.841 26.747,39.841C26.747,39.841 26.749,39.865 26.729,39.86C26.712,39.853 26.688,39.847 26.662,39.842C26.57,39.829 26.449,39.836 26.469,39.907C26.482,39.953 26.521,40.017 26.422,40.145C26.277,40.331 25.975,40.2 26.066,40.585C26.079,40.566 26.155,40.462 26.322,40.479C26.462,40.492 26.61,40.656 26.608,40.889C26.603,40.976 26.569,41.05 26.488,41.106C26.488,41.106 26.476,41.096 26.479,41.082C26.505,40.976 26.461,40.904 26.384,40.888C26.238,40.875 26.287,40.985 26.107,40.981C26.083,40.981 26.061,40.979 26.041,40.976C25.974,40.964 25.932,40.942 25.887,40.936C25.874,40.934 25.86,40.933 25.845,40.935C25.618,40.963 25.328,41.131 25.223,41.29C25.119,41.448 25.236,41.493 25.141,41.639C25.061,41.764 24.967,41.754 24.967,41.754C24.967,41.754 24.963,41.79 24.968,41.833C24.976,41.896 25.001,41.974 25.081,41.991C25.081,41.991 25.106,42.002 25.084,42.008C25.059,42.017 25.011,42.031 24.959,42.023C24.895,42.013 24.824,41.969 24.789,41.833C24.779,41.796 24.772,41.751 24.769,41.7C24.769,41.7 24.637,41.576 24.696,41.419C24.769,41.226 24.941,41.285 24.87,41.055C24.791,40.798 24.298,40.371 23.987,40.322C23.912,40.311 23.848,40.322 23.803,40.363C23.698,40.457 23.677,40.725 24.01,40.747C23.943,40.886 23.827,40.923 23.636,40.879C23.486,40.845 23.329,40.612 23.389,40.308C23.468,39.91 23.22,39.592 22.982,39.555C22.948,39.549 22.914,39.549 22.882,39.557C22.6,39.605 22.646,40.019 22.646,40.019L22.791,41.628C22.783,41.679 22.805,41.753 22.853,41.833C22.946,41.988 23.135,42.161 23.401,42.217C23.63,42.261 23.814,42.206 23.874,42.125C23.89,42.101 23.989,41.952 23.939,41.833C23.923,41.797 23.894,41.765 23.845,41.739C23.831,41.733 23.818,41.729 23.806,41.727C23.721,41.714 23.668,41.792 23.651,41.783C23.607,41.672 23.671,41.473 23.969,41.53C24.169,41.567 24.239,41.7 24.256,41.833C24.275,41.989 24.222,42.145 24.222,42.145C24.222,42.145 24.395,42.083 24.6,42.115C24.619,42.118 24.638,42.122 24.658,42.126C24.818,42.192 24.931,42.27 24.954,42.441C24.98,42.64 24.809,42.736 24.809,42.736C24.809,42.736 24.862,42.592 24.711,42.504C24.67,42.484 24.633,42.471 24.598,42.465C24.4,42.436 24.299,42.638 24.31,42.79C24.323,43.035 24.262,43.228 24.079,43.253C24.037,43.256 24.002,43.254 23.973,43.25C23.84,43.231 23.83,43.149 23.83,43.149C23.83,43.149 24.028,43.166 24.022,42.985C24.042,42.533 23.252,42.542 22.96,42.391C22.709,42.271 22.607,42.116 22.607,42.116C22.607,42.116 22.591,42.134 22.594,42.229C22.647,42.699 22.928,42.719 23.211,42.784C23.399,42.833 23.612,42.991 23.612,43.256C23.612,43.633 23.364,43.592 23.364,43.592C23.364,43.592 23.463,43.292 23.19,43.249C23.17,43.247 23.147,43.245 23.122,43.245C22.968,43.245 22.88,43.323 22.787,43.397C22.642,43.513 22.212,44.017 22.128,44.099C22.044,44.017 21.613,43.513 21.468,43.397C21.375,43.323 21.287,43.245 21.133,43.245C21.108,43.245 21.086,43.247 21.065,43.249C20.792,43.292 20.891,43.592 20.891,43.592C20.891,43.592 20.643,43.633 20.643,43.256C20.643,42.991 20.856,42.833 21.044,42.784C21.327,42.719 21.608,42.699 21.661,42.229C21.664,42.134 21.648,42.116 21.648,42.116C21.648,42.116 21.546,42.271 21.295,42.391C21.003,42.542 20.213,42.533 20.233,42.985C20.227,43.166 20.425,43.149 20.425,43.149C20.425,43.149 20.415,43.231 20.282,43.25C20.253,43.254 20.218,43.256 20.176,43.253C19.993,43.228 19.932,43.035 19.945,42.79C19.956,42.638 19.855,42.436 19.657,42.465C19.622,42.471 19.585,42.484 19.544,42.504C19.393,42.592 19.446,42.736 19.446,42.736C19.446,42.736 19.275,42.64 19.301,42.441C19.324,42.27 19.437,42.192 19.597,42.126C19.617,42.122 19.636,42.118 19.655,42.115C19.861,42.083 20.033,42.145 20.033,42.145C20.033,42.145 19.98,41.989 19.999,41.833C20.016,41.7 20.086,41.567 20.287,41.53C20.584,41.473 20.648,41.672 20.604,41.783C20.587,41.792 20.534,41.714 20.449,41.727C20.437,41.729 20.424,41.733 20.41,41.739C20.361,41.765 20.332,41.797 20.316,41.833C20.266,41.952 20.365,42.101 20.381,42.125C20.441,42.206 20.625,42.261 20.854,42.217C21.12,42.161 21.309,41.988 21.402,41.833C21.45,41.753 21.472,41.679 21.464,41.628L21.609,40.019C21.609,40.019 21.655,39.605 21.373,39.557C21.341,39.549 21.307,39.549 21.274,39.555C21.035,39.592 20.787,39.91 20.866,40.308C20.926,40.612 20.77,40.845 20.619,40.879C20.428,40.923 20.312,40.886 20.245,40.747C20.578,40.725 20.557,40.457 20.452,40.363C20.407,40.322 20.343,40.311 20.268,40.322C19.957,40.371 19.464,40.798 19.385,41.055C19.314,41.285 19.486,41.226 19.559,41.419C19.618,41.576 19.486,41.7 19.486,41.7C19.483,41.751 19.476,41.796 19.466,41.833C19.431,41.969 19.36,42.013 19.296,42.023C19.244,42.031 19.196,42.017 19.171,42.008C19.254,41.974 19.279,41.896 19.287,41.833C19.292,41.79 19.288,41.754 19.288,41.754C19.288,41.754 19.194,41.764 19.114,41.639C19.019,41.493 19.136,41.448 19.032,41.29C18.927,41.131 18.637,40.963 18.41,40.935C18.395,40.933 18.381,40.934 18.368,40.936C18.323,40.942 18.281,40.964 18.214,40.976C18.194,40.979 18.172,40.981 18.148,40.981C17.968,40.985 18.017,40.875 17.871,40.888C17.794,40.904 17.75,40.976 17.776,41.082C17.779,41.096 17.767,41.106 17.767,41.106C17.686,41.05 17.652,40.976 17.647,40.889C17.645,40.656 17.793,40.492 17.933,40.479C18.1,40.462 18.177,40.566 18.189,40.585C18.28,40.2 17.978,40.331 17.833,40.145C17.734,40.017 17.773,39.953 17.786,39.907C17.806,39.836 17.685,39.829 17.593,39.842C17.567,39.847 17.543,39.853 17.527,39.86C17.508,39.841 17.555,39.662 17.745,39.633C17.811,39.623 17.894,39.63 17.998,39.669C18.097,39.641 18.19,39.689 18.225,39.755C18.267,39.835 18.232,39.928 18.244,40.027C18.273,40.283 18.43,40.276 18.454,40.273C18.315,39.907 18.49,39.797 18.508,39.741C18.526,39.683 18.504,39.606 18.414,39.574C18.394,39.567 18.368,39.55 18.398,39.542C18.398,39.542 18.749,39.528 18.803,39.756C18.803,39.756 18.955,39.837 18.958,40.027C18.963,40.263 18.835,40.285 18.785,40.332C18.821,40.579 18.967,40.62 19.104,40.599C19.238,40.578 19.363,40.498 19.363,40.498C19.593,40.407 20.073,40.111 19.944,39.869C19.884,39.757 19.787,39.71 19.68,39.727C19.63,39.735 19.577,39.756 19.526,39.793C19.387,39.925 19.457,40.1 19.457,40.1C19.245,40.156 19.146,39.79 19.278,39.633C19.37,39.525 19.483,39.482 19.605,39.46C19.743,39.437 19.892,39.442 20.033,39.414C20.202,39.378 20.331,39.274 20.456,39.055C20.548,38.902 20.551,38.691 20.471,38.523C20.389,38.338 20.221,38.109 19.984,38.066C19.938,38.462 19.719,38.776 19.451,38.966C19.385,39.013 19.298,39.039 19.24,39.047C19.193,39.055 19.163,39.052 19.174,39.039C19.524,38.629 19.433,38.202 19.423,38.161C19.398,38.207 19.126,38.708 18.638,38.922C18.591,38.943 18.542,38.957 18.492,38.963C18.231,39.004 17.969,38.882 18.072,38.87C18.246,38.846 18.943,38.441 18.733,37.581C18.706,37.629 18.4,38.178 18.021,38.437C17.86,38.547 17.693,38.603 17.543,38.625C17.246,38.672 17.019,38.589 17.062,38.55C17.062,38.55 17.883,38.162 17.894,37.79C17.867,37.812 17.644,37.984 17.385,38.024C17.35,38.029 17.315,38.032 17.279,38.032C16.578,38.032 16.578,37.528 16.578,37.528C16.628,37.533 17.282,37.576 17.817,36.44C17.817,36.44 17.468,36.564 17.067,36.607C16.828,36.633 16.728,36.484 16.756,36.486C16.798,36.499 16.846,36.503 16.905,36.495C17.037,36.474 17.226,36.391 17.464,36.207C17.401,36.179 16.541,35.797 16.873,35.208C16.873,35.208 17.111,35.415 17.403,35.442C17.617,35.46 17.992,35.419 18.082,35.205C18.082,35.205 17.619,35.178 17.165,34.892C17.151,34.882 17.137,34.873 17.124,34.864C16.917,34.863 16.703,34.873 16.481,34.897C16.334,35.472 15.857,35.894 15.292,35.894C14.729,35.894 14.254,35.476 14.105,34.905C13.738,34.839 13.385,34.831 13.04,34.859L4.99,43.432C5.767,44.159 6.617,44.775 7.504,45.289L15.031,37.274L15.031,41.517L10.304,46.55C12.023,47.131 13.756,47.395 15.291,47.395C21.161,47.395 29.928,43.548 29.728,32.788L29.728,25.866L25.967,29.872L21.982,29.872L29.728,21.622L29.728,17.086L21.607,25.736C21.644,25.767 21.666,25.802 21.666,25.839L21.668,34.275ZM20.792,36.87L23.464,36.87L23.464,35.795L20.791,35.795L20.792,36.87ZM22.128,38.965C23.329,38.965 23.434,37.831 23.434,37.831L20.813,37.831C20.813,37.83 20.926,38.965 22.128,38.965ZM6.192,20.267L8.864,20.267L8.864,19.193L6.191,19.193L6.192,20.267ZM7.528,22.363C8.729,22.363 8.834,21.228 8.834,21.228L6.213,21.228C6.213,21.228 6.326,22.363 7.528,22.363ZM14.736,34.715C14.736,35.033 14.994,35.29 15.311,35.29C15.629,35.29 15.886,35.033 15.886,34.715C15.886,34.399 15.629,34.141 15.311,34.141C14.994,34.141 14.736,34.399 14.736,34.715ZM9.315,26.058L9.315,34.871C9.315,34.871 9.411,34.989 10,34.828C10.678,34.643 11.519,33.779 12.697,33.522C13.581,33.33 14.773,33.608 15.051,33.8L15.051,24.972C15.051,24.972 14.517,24.448 13.639,24.448C12.782,24.448 11.337,25.217 10.781,25.497C10.297,25.738 9.788,25.92 9.417,25.957C9.305,25.966 9.315,26.058 9.315,26.058ZM17.041,33.5C18.572,33.5 19.369,34.45 19.888,34.657C21.097,35.138 21.3,34.892 21.3,34.892L21.3,26.032C21.3,25.946 21.172,25.946 21.172,25.946C21.172,25.946 19.993,25.765 19.588,25.518C19.203,25.283 17.769,24.425 16.72,24.425C15.668,24.425 15.479,24.875 15.479,24.875L15.479,33.822C15.479,33.822 15.971,33.5 17.041,33.5Z" style="fill:rgb(237,25,58);fill-rule:nonzero;"/>
        </g>
    </g>
</svg>
